inDegrees=no
num_controls=7
num_derivatives=13
num_iterations=95
num_multipliers=7
num_parameters=0
num_slacks=7
num_states=26
objective=0.425537
objective_accelerations=0.059582
objective_balance=0.001323
objective_effort=0.014784
objective_height=0.343960
objective_ligament=0.005888
solver_duration=1398.596666
status=Solve_Succeeded
success=true
DataType=double
version=3
OpenSimVersion=4.5
endheader
time	/jointset/ground_pelvis/pelvis_tilt/value	/jointset/ground_pelvis/pelvis_tx/value	/jointset/ground_pelvis/pelvis_ty/value	/jointset/hip_l/hip_flexion_l/value	/jointset/hip_l/hip_adduction_l/value	/jointset/hip_l/hip_rotation_l/value	/jointset/back/lumbar_extension/value	/jointset/patellofemoral_l/patellar_flexion_l/value	/jointset/knee_l/knee_flexion_l/value	/jointset/knee_l/knee_adduction_l/value	/jointset/knee_l/knee_rotation_l/value	/jointset/ankle_l/ankle_angle_l/value	/jointset/subtalar_l/subtalar_angle_l/value	/jointset/ground_pelvis/pelvis_tilt/speed	/jointset/ground_pelvis/pelvis_tx/speed	/jointset/ground_pelvis/pelvis_ty/speed	/jointset/hip_l/hip_flexion_l/speed	/jointset/hip_l/hip_adduction_l/speed	/jointset/hip_l/hip_rotation_l/speed	/jointset/back/lumbar_extension/speed	/jointset/patellofemoral_l/patellar_flexion_l/speed	/jointset/knee_l/knee_flexion_l/speed	/jointset/knee_l/knee_adduction_l/speed	/jointset/knee_l/knee_rotation_l/speed	/jointset/ankle_l/ankle_angle_l/speed	/jointset/subtalar_l/subtalar_angle_l/speed	/forceset/tau_hip_flexion_l	/forceset/tau_hip_adduction_l	/forceset/tau_hip_rotation_l	/forceset/tau_knee_flexion_l	/forceset/tau_ankle_angle_l	/forceset/tau_subtalar_angle_l	/forceset/tau_lumbar_extension	lambda_cid13_p0	lambda_cid13_p1	lambda_cid13_p2	lambda_cid13_p3	lambda_cid13_p4	lambda_cid13_p5	lambda_cid14_p0	/jointset/ground_pelvis/pelvis_tilt/accel	/jointset/ground_pelvis/pelvis_tx/accel	/jointset/ground_pelvis/pelvis_ty/accel	/jointset/hip_l/hip_flexion_l/accel	/jointset/hip_l/hip_adduction_l/accel	/jointset/hip_l/hip_rotation_l/accel	/jointset/back/lumbar_extension/accel	/jointset/patellofemoral_l/patellar_flexion_l/accel	/jointset/knee_l/knee_flexion_l/accel	/jointset/knee_l/knee_adduction_l/accel	/jointset/knee_l/knee_rotation_l/accel	/jointset/ankle_l/ankle_angle_l/accel	/jointset/subtalar_l/subtalar_angle_l/accel	gamma_cid13_p0	gamma_cid13_p1	gamma_cid13_p2	gamma_cid13_p3	gamma_cid13_p4	gamma_cid13_p5	gamma_cid14_p0
1	-0.4445893183933223	-0.005268539716602285	0.5865909633399078	1.71785852149103	-0.3443815599189508	0.1290339917907904	-0.436306876333093	1.531134886760741	1.531134886760748	0.07858595168738031	-0.1744923351450715	0.435109002757495	0.2531179932257577	-0.1414107389173709	-0.0004581169804960651	0.03080684054366661	0.03304244467682303	0.001463087549690475	-0.06243031134826967	-2.644525315684558e-05	-0.1445002124380197	-0.144500212438021	0.006748298135350102	3.311749989245722e-05	-0.04818206014329283	-0.02679549359070202	-0.2375853791834183	0.04233963321727498	-0.01684333697630033	-0.2978170257204795	-0.03086288749616035	0.01120221491998579	0.2078447234811248	-42.41384093051626	8.776336120351207	-8.779339356243314	6.637031025008473	-544.1146230690032	-65.02057517585206	-0.02371411622940068	1.427690368303594	0.1776551561840049	2.050345949610742	-6.647476830545345	-0.2029577774647994	-1.528856872841947	-0.02835418110445971	-5.684649708753406	-5.684649708753381	-0.9150150620632349	-0.0306093028804788	-0.9591559899922582	-0.9072514396967901	2.834685905456293e-09	-1.429553343163336e-07	-8.450922514193142e-08	-1.502719994082719e-08	-7.03579379426322e-09	-2.117947925409397e-07	1.13475591383673e-08
1.01	-0.4459327037791826	-0.00526421736698458	0.5870013232644071	1.717857627060909	-0.3443764549131832	0.1283358366388999	-0.4363076639285619	1.52940613693861	1.529406136938627	0.07860606048503579	-0.1744919264858955	0.4345792564402329	0.2528057213835793	-0.1272559011227499	0.001330285913798927	0.05125461291566507	-0.03320872788050053	-0.0004363672525976966	-0.07719214789051947	-0.000129017125241763	-0.2012383562741978	-0.2012383562741977	-0.00271943090684067	4.808742832330308e-05	-0.05777517237884531	-0.03564837206105741	-0.2379544855560786	0.04238287418771734	-0.01689777052983497	-0.2968655614972727	-0.03111168654651274	0.01125212502331754	0.2080257875934386	-42.452334375048	8.72448596532158	-8.728908390620367	6.518966863414755	-543.8771239425113	-64.87818653548396	-0.02372950967267714	1.410947144256248	0.1805825816862172	2.040410937098314	-6.612045962267212	-0.1825626211138671	-1.448564847200955	-0.0009001830594468859	-5.666690224110865	-5.666690224110694	-0.9615958530753783	0.01743440105934625	-0.9605919838423937	-0.8726860025245919	3.708038733655212e-09	-1.907347028308002e-07	-1.204808213243649e-07	-2.55230736986491e-08	-1.109800267868039e-08	-2.750187805517644e-07	1.427151754656251e-08
1.02	-0.4471342274552537	-0.005241781043297094	0.5876158445238474	1.717194599206431	-0.3443901691133389	0.1274903195611296	-0.4363094155413109	1.527110346977504	1.527110346977528	0.07853170318672729	-0.1744913912753657	0.4339533383719135	0.2524052447663332	-0.1130383969595339	0.003164677833459731	0.07163910753180402	-0.09938424019547934	-0.002300753635006915	-0.09190269652414947	-0.0002192487092864856	-0.2579082402328107	-0.2579082402328101	-0.01214492106016691	5.842777093348795e-05	-0.06741641035462294	-0.04443644860420001	-0.238323591928718	0.04242611515815838	-0.01695220408332444	-0.2959140972740662	-0.03136048559686997	0.01130203512664333	0.2082068517057741	-42.4948288853499	8.671350394362982	-8.676003693097847	6.40082934071993	-543.7486196412228	-64.73863602844364	-0.02374772182591412	1.440223642022617	0.1868529612571634	2.037690398438837	-6.632344782076408	-0.195944093489013	-1.51859929111799	-0.0258861234964539	-5.670997733240377	-5.670997733240516	-0.9065672842903302	-0.0315352200446228	-0.9687811380372948	-0.8942910542542373	4.778366541217994e-09	-2.376064646895778e-07	-1.546532466120082e-07	-3.576754570759772e-08	-1.522841399529267e-08	-3.375742834095263e-07	1.717861073615638e-08
1.03	-0.4481932858727212	-0.005200759764122521	0.5884338043411453	1.71587043577627	-0.3444223074335078	0.1264979633922026	-0.4363120270413968	1.524248277519583	1.524248277519595	0.07836338769392581	-0.1744907566089472	0.4332306431574467	0.2519172295701118	-0.09876538509212948	0.00504838374709136	0.09193338477247641	-0.1654120240505423	-0.004116758257704305	-0.1065558661993524	-0.0003028296628174324	-0.3144865107776976	-0.3144865107776964	-0.02150598294245631	7.011099416688696e-05	-0.07714272741653566	-0.05315400326292809	-0.2384136101628858	0.04247397178229961	-0.01696586781172724	-0.2947859576720036	-0.0315121406860675	0.01138757789870713	0.2081966838995754	-42.47859108929612	8.583168540508691	-8.606903539960783	6.25583220567017	-543.289157919782	-64.60964113654929	-0.02377300370056574	1.422025916485845	0.1904410042855001	2.022371816631189	-6.582531179413689	-0.1728756071176979	-1.436780402825174	0.0004391653277516002	-5.648374663749794	-5.648374663749606	-0.9490622785741374	0.01770453660894375	-0.9775828374690863	-0.8585317369082682	5.850704297549797e-09	-2.844689652559504e-07	-1.8880731301297e-07	-4.600945239257823e-08	-1.935952125509061e-08	-4.00122964990216e-07	2.008553183168289e-08
1.04	-0.4491093769800371	-0.005140639106237735	0.5894541220168003	1.713887087309121	-0.3444722951919951	0.1253594546071015	-0.4363154677016893	1.520820998766485	1.520820998766485	0.07810182425464046	-0.1744899682216769	0.4324100796029207	0.2513424300142577	-0.0844449349292673	0.006984553575502279	0.1121106792031222	-0.2312212475933051	-0.005870641298704433	-0.1211332197587066	-0.0003850807519834812	-0.3709500992680625	-0.3709500992680599	-0.03079451035978175	8.917194146522363e-05	-0.08699007836648046	-0.06179332053070325	-0.2385036283970526	0.0425218284064347	-0.01697953154008567	-0.2936578180699407	-0.03166379577526725	0.01147312067075874	0.2081865160933777	-42.46656933774563	8.493803173186269	-8.535419304825565	6.111199811310868	-542.9395677136196	-64.48430013391234	-0.02380120759439226	1.449711301114197	0.1973457442130169	2.014293836433512	-6.588632719616387	-0.1835197771495664	-1.503436067948264	-0.02562015062349101	-5.648061322335942	-5.648061322335963	-0.8920603912975431	-0.03005967523165058	-0.9929879156437181	-0.8786435760636671	6.282619521797908e-09	-3.280255185962533e-07	-2.203746007795804e-07	-5.434338755975027e-08	-2.359702663862339e-08	-4.547813028417375e-07	2.24564714278092e-08
1.05	-0.4498819971385332	-0.005060847224276509	0.5906755558485078	1.711246846315962	-0.3445395031587578	0.1240755597251537	-0.4363197169068248	1.516829732265708	1.516829732265716	0.07774778596433138	-0.1744889709855782	0.4314903932808697	0.2506816367665446	-0.07006931689695871	0.008987239895747592	0.132149437002675	-0.2967795006324399	-0.00755915729567761	-0.135627414195848	-0.0004629085604597605	-0.4272766456103403	-0.4272766456103392	-0.04000057567701697	0.0001120264742102865	-0.09697137040558065	-0.07035020583325959	-0.2383395720134333	0.04256313449786957	-0.01695020186869427	-0.2924102670767768	-0.03161908762859807	0.01158803935105756	0.2080221698036699	-42.36606196659969	8.371807642984708	-8.453731376672627	5.880592771845498	-542.3094133243472	-64.37420570455613	-0.02383500090175003	1.432954487828368	0.203730030644726	1.994663620936288	-6.532303616918902	-0.1597071357868866	-1.41966706290569	0.001413660956386596	-5.620972984512927	-5.620972984513091	-0.9330155695774376	0.01864637645893745	-1.004342895007281	-0.8418532086101423	6.694521541918408e-09	-3.714787610857414e-07	-2.518610517138673e-07	-6.261769861699082e-08	-2.783785696352289e-08	-5.091930674517225e-07	2.481066160207926e-08
1.06	-0.4505105676299978	-0.004960628488169866	0.5920965766320554	1.70795244638826	-0.3446232342104495	0.1226472717125695	-0.4363246888386311	1.512275995962641	1.51227599596264	0.07730205982733367	-0.1744877075323645	0.4304701654290349	0.2499357462255542	-0.05563500152308078	0.01106992440458569	0.1520280695710223	-0.3620530345058472	-0.009175258285276539	-0.1500118458853358	-0.0005296260922938311	-0.4834440597261877	-0.4834440597261876	-0.04913207969988943	0.0001424153642098984	-0.1070983843232453	-0.0788127791861571	-0.2381755156296736	0.04260444058930887	-0.01692087219725063	-0.291162716083617	-0.03157437948195402	0.0117029580313471	0.2078578235141073	-42.27006231053812	8.248729570556419	-8.369732471791121	5.651241052586326	-541.7902719516658	-64.26895774267534	-0.02387192170114054	1.461450769428092	0.2133453819315689	1.9822687901924	-6.531688886470943	-0.1690367756747231	-1.481483518417572	-0.0233980952949821	-5.616234877049842	-5.616234877049762	-0.8771481324249969	-0.02855280378075955	-1.022132291356622	-0.8597811861319206	6.056669786914769e-09	-4.141045034277896e-07	-2.763140988031858e-07	-6.890711171084491e-08	-3.276568480737787e-08	-5.542556008692997e-07	2.561913966118088e-08
1.07	-0.4509945054884392	-0.004839116177982467	0.5937155301667583	1.704006785179065	-0.3447227415534163	0.1210756272826347	-0.4363295042877852	1.507161411287408	1.507161411287406	0.07676551497101185	-0.1744860664459051	0.4293479387346444	0.2491057619728805	-0.04114364643299935	0.01325261187284734	0.1717308411046174	-0.4270272387511601	-0.0107134706988985	-0.1642963704322316	-0.0003544374962380078	-0.5394439090553713	-0.5394439090553607	-0.05816324952608333	0.0001885582868160069	-0.1173713496446454	-0.08716512160911802	-0.2383667097275372	0.04273785207273357	-0.0168697401891387	-0.2893791568503726	-0.03204612049624232	0.0118383463191092	0.2080293377876253	-42.33125094331039	8.113701010888745	-8.248895443250243	5.499008550643125	-541.254047927554	-64.11456403950903	-0.02391398918849998	1.444316595901126	0.2237264596137525	1.959504278970731	-6.472490879191872	-0.1442521611318394	-1.39884777525087	0.04983127601367587	-5.58752030041512	-5.587520300413607	-0.9140845922240434	0.02152250003978914	-1.033557481207816	-0.8200095268971465	5.362980065149201e-09	-4.566862298045484e-07	-3.00393028666708e-07	-7.509094512579548e-08	-3.77300550724539e-08	-5.988208347553656e-07	2.634539899075225e-08
